<?xml version="1.0" encoding="UTF-8"?>
<svg width="251.2px" height="49.7653181px" viewBox="0 0 251.2 49.7653181" version="1.1" xmlns="http://www.w3.org/2000/svg" xmlns:xlink="http://www.w3.org/1999/xlink">
    <title>sector</title>
    <g id="Page-1" stroke="none" stroke-width="1" fill="none" fill-rule="evenodd">
        <g id="sector" transform="translate(0.000000, 0.000000)" fill="#000000" fill-rule="nonzero">
            <path d="M189.8,2.66531813 C202,2.66531813 212,12.6653181 212,24.8653181 C212,37.0653181 202.1,47.0653181 189.8,47.0653181 C177.6,47.0653181 167.6,37.1653181 167.6,24.8653181 C167.6,12.5653181 177.6,2.66531813 189.8,2.66531813 M189.8,0.665318128 C176.4,0.665318128 165.6,11.4653181 165.6,24.8653181 C165.6,38.2653181 176.4,49.0653181 189.8,49.0653181 C203.2,49.0653181 214,38.1653181 214,24.8653181 C214,11.5653181 203.1,0.665318128 189.8,0.665318128 Z" id="Shape"></path>
            <path d="M251.2,17.9653181 C251.2,8.56531813 243.6,1.06531813 234.3,1.06531813 L217,1.06531813 L217,49.0653181 L251.2,49.0653181 L242.9,32.5653181 C247.9,29.5653181 251.2,24.1653181 251.2,17.9653181 Z M248,46.9653181 L219,46.9653181 L219,2.96531813 L234.3,2.96531813 C242.5,2.96531813 249.2,9.66531813 249.2,17.8653181 C249.2,23.0653181 246.4,27.9653181 242,30.6653181 L234.6,15.9653181 L232.8,16.8653181 L248,46.9653181 Z" id="Shape"></path>
            <path d="M160.4,2.96531813 L160.4,19.4653181 L153.4,19.4653181 L153.4,46.9653181 L137.4,46.9653181 L137.4,19.5653181 L130.4,19.5653181 L130.4,2.96531813 L160.4,2.96531813 M162.4,0.965318128 L128.4,0.965318128 L128.4,21.4653181 L135.4,21.4653181 L135.4,48.9653181 L155.4,48.9653181 L155.4,21.5653181 L162.4,21.5653181 L162.4,0.965318128 Z" id="Shape"></path>
            <path d="M101.8,0.665318128 C88.4,0.665318128 77.6,11.4653181 77.6,24.8653181 C77.6,38.2653181 88.4,49.0653181 101.8,49.0653181 C115.2,49.0653181 126,38.2653181 126,24.8653181 C126,11.4653181 115.1,0.665318128 101.8,0.665318128 L101.8,0.665318128 Z M101.8,46.9653181 C89.6,46.9653181 79.6,37.0653181 79.6,24.7653181 C79.6,12.4653181 89.5,2.56531813 101.8,2.56531813 C113.8,2.56531813 123.5,12.0653181 124,23.9653181 L102,23.9653181 L102,25.9653181 L123.9,25.9653181 C123.3,37.6653181 113.6,46.9653181 101.8,46.9653181 L101.8,46.9653181 Z" id="Shape"></path>
            <path d="M40,0.965318128 L40,48.9653181 L74,48.9653181 L74,0.965318128 L40,0.965318128 L40,0.965318128 Z M42,46.9653181 L42,2.96531813 L72,2.96531813 L72,15.8653181 L56.6,15.8653181 L56.6,17.8653181 L72,17.8653181 L72,31.8653181 L56.6,31.8653181 L56.6,33.8653181 L72,33.8653181 L72,46.9653181 L42,46.9653181 Z" id="Shape"></path>
            <path d="M29.6,14.8653181 L37.2,7.06531813 L36.5,6.36531813 C27.8,-1.93468187 14.5,-2.13468187 6.7,5.86531813 C2.9,9.76531813 1,15.0653181 1.3,20.6653181 C1.6,25.8653181 3.8,30.8653181 7.6,34.8653181 L0,42.6653181 L0.7,43.3653181 C4.9,47.3653181 10.2,49.6653181 15.8,49.7653181 L16.2,49.7653181 C21.7,49.7653181 26.7,47.6653181 30.4,43.8653181 C34.2,39.9653181 36.1,34.7653181 35.8,29.0653181 C35.5,23.7653181 33.3,18.8653181 29.6,14.8653181 Z M8.1,7.26531813 C11.5,3.76531813 16.1,1.96531813 20.8,1.96531813 C25.5,1.96531813 30.3,3.66531813 34.2,7.16531813 L8.9,33.3653181 C5.6,29.8653181 3.6,25.2653181 3.3,20.5653181 C3,15.4653181 4.8,10.7653181 8.1,7.26531813 Z M29,42.4653181 C25.6,45.9653181 21,47.8653181 15.9,47.7653181 C11.1,47.6653181 6.5,45.8653181 2.9,42.5653181 L9,36.2653181 L28.2,16.3653181 C31.6,19.9653181 33.6,24.4653181 33.8,29.1653181 C34.1,34.2653181 32.4,38.9653181 29,42.4653181 Z" id="Shape"></path>
        </g>
    </g>
</svg>