<svg height="180" viewBox="0 0 180 180" width="180" xmlns="http://www.w3.org/2000/svg"><g fill="none" fill-rule="evenodd"><rect fill="#0284c7" height="176" rx="8" width="176" x="2" y="2"/><path d="m92.3010753 46.0010922 23.6989247-24.1372916-2.182796-2.1661672c-27.129032-25.684554-68.6021502-26.30345892-92.9247309-1.5472623-11.84946235 12.0686459-17.77419353 28.469626-16.83870966 45.7989637.93548387 16.0915278 7.79569896 31.5641507 19.64516126 43.9422492l-23.6989247 24.137291 2.1827957 2.166168c13.0967742 12.378098 29.6236559 19.495505 47.0860215 19.804957h1.2473118c17.1505377 0 32.7419355-6.498502 44.2795699-18.257695 11.8494621-12.068646 17.7741931-28.160174 16.8387101-45.7989638-.935484-16.4009802-7.795699-31.5641507-19.3333337-43.942249zm-66.2417813-24.6083109c10.6029635-10.8987969 24.9481495-16.50389241 39.6051873-16.50389241s29.6259274 5.29370131 41.7881507 16.19249821l-78.8985231 81.5852799c-10.2911116-10.8987972-16.528149-25.2229303-17.4637046-39.8584576-.9355556-15.881104 4.6777781-30.5166313 14.9688897-41.4154281zm65.0984844 111.2047157c-10.602445 10.897494-24.9469295 16.813276-40.850597 16.501919-14.9681577-.311357-29.3126421-5.915782-40.53876035-16.190562l19.02203375-19.615488 59.8726306-61.9600327c10.6024451 11.2088502 16.8391776 25.219913 17.4628506 39.8536897.93551 15.879204-4.365713 30.512981-14.9681576 41.410474z" fill="#fff" fill-rule="nonzero" transform="translate(32 13)"/></g></svg>