<svg class="logo__brand" xmlns="http://www.w3.org/2000/svg" width="260" height="50" viewBox="0 0 260 50"><style type="text/css">.logo__item{fill:#EEEEEE;}</style><title>Sector_logo</title><path class="logo__item" d="M196.3.5c-13.9 0-25.1 11-25.1 24.5s11.2 24.5 25 24.5 25-11 25-24.5c.2-13.5-11-24.5-24.9-24.5zm0 47.4c-12.9 0-23.3-10.3-23.3-22.9 0-12.6 10.5-22.8 23.4-22.8 12.9 0 23.4 10.2 23.4 22.9s-10.6 22.8-23.5 22.8zM257.6 8.7c-3.1-5.2-8.9-8.4-15-8.4h-18v48.5h35.4l-8.6-16.7c8.3-4.7 11.1-15.2 6.2-23.4zm-.3 38.4h-31v-45.1h16.3c8.7 0 15.8 6.8 15.8 15.3 0 5.5-2.9 10.5-7.7 13.3l-7.8-15.1-1.5.7 7.8 15.2.7 1.4 7.4 14.3zM133.6.3v20.7h6.9v27.7h21.4v-27.6h6.9v-20.8h-35.2zm33.4 19.1h-6.9v27.7h-18v-27.7h-6.9v-17.4h31.8v17.4z"/><path class="logo__item" d="M37.3 6.4c-8.8-8.3-22.5-8.6-30.5-.5-3.7 3.7-5.6 8.7-5.5 14 .1 5.6 2.5 11.1 6.6 15.2l-7.9 7.9.6.6c4.5 4.3 10.3 6.4 15.9 6.4 5.4 0 10.7-2 14.6-5.9 3.7-3.7 5.6-8.7 5.5-14-.1-5.6-2.5-11.1-6.6-15.2l7.9-7.9-.6-.6zm-2.3 23.7c0 4.9-1.8 9.5-5.1 12.9-7.2 7.2-19.3 7.2-27.5 0l6.6-6.7 4.8-4.9 15.1-15.3c3.8 3.8 6 8.9 6.1 14zm-22.1-.2l-4 4c-3.7-3.8-5.9-8.9-5.9-14-.1-4.9 1.7-9.5 5-12.9 3.6-3.6 8.4-5.4 13.3-5.4 5 0 10.1 1.8 14.1 5.4l-22.5 22.9z"/><path class="logo__item" d="M105.7.4c-13.8 0-25 11-25 24.5s11.2 24.5 25 24.5 25-11 25-24.5-11.2-24.5-25-24.5zm23.3 25.4c-.4 12.2-10.7 22-23.3 22-12.9 0-23.4-10.2-23.4-22.9 0-12.6 10.5-22.8 23.4-22.9 12.6 0 22.9 9.8 23.3 22h-24v1.7h24zM41.5 48.7h35.4v-48.5h-35.4v48.5zm1.7-46.8h32v14h-15.9v1.7h15.9v14.9h-15.9v1.7h15.9v13h-32v-45.3z"/></svg>