<svg xmlns="http://www.w3.org/2000/svg" width="16" height="16"><path d="M1.5 5.6l1.8 1.3s1.8 1.2 2.3 1.6c.1 0 .2.1.4.3.3.1.4.2.6.3l.4.3s.4.2.5.2c.2.1.4.1.5.1.1 0 .3 0 .4-.1s.4-.1.6-.2.3-.2.5-.3c.1-.1.2-.2.4-.3.2-.1.3-.2.4-.3.5-.4 1.9-1.3 4.2-2.9.4-.3.8-.7 1.1-1.1s.4-.9.4-1.4c0-.4-.1-.7-.4-1s-.6-.4-1-.4H1.4c-.4 0-.8.2-1 .5S0 2.9 0 3.3s.2.8.5 1.2c.3.5.7.8 1 1.1zm13.6.9c-2 1.3-3.4 2.3-4.4 3.1-.3.2-.6.4-.8.6-.2.1-.5.3-.8.4-.4.1-.7.2-1 .2-.3 0-.6-.1-1-.2s-.6-.3-.8-.4c-.3-.1-.6-.3-1-.6C4.5 9 3.1 8 .9 6.5c-.3-.2-.6-.4-.9-.7v7.1c0 .4.1.7.4 1s.6.4 1 .4h13.1c.4 0 .7-.1 1-.4.3-.3.4-.6.4-1V5.8c-.2.3-.5.5-.8.7z"/></svg>