<svg xmlns="http://www.w3.org/2000/svg" width="16" height="16"><path d="M0 14.2V1.9C0 1.3.1 1 .4.6.7.3 1.1.1 1.5 0h12.7c.5 0 .9.1 1.2.4.3.3.5.7.6 1.1v12.7c0 .5-.2.9-.5 1.2-.3.3-.7.5-1.1.6H1.8c-.4 0-.8-.1-1.2-.4-.3-.3-.6-.6-.6-1.1v-.3zm2-.1c.1.1.3.2.5.2h11.2c.2 0 .3-.1.5-.2.1-.1.2-.3.2-.5V6.7H13c.1.5.2.9.2 1.3v.2c0 .5-.1 1-.3 1.5-.2.5-.4.9-.7 1.3-.3.4-.7.7-1.1 1-.4.3-.8.5-1.2.6-.4.1-.9.2-1.3.2h-.1c-.4 0-.8 0-1.2-.1-.4-.1-.9-.3-1.3-.5s-.8-.5-1.1-.9c-.3-.3-.6-.7-.8-1.1-.8-.5-.9-1-1-1.6v-.5c0-.4.1-.9.2-1.3H1.9v6.9c-.1.1-.1.2.1.4zm3.2-4.8c.2.4.4.7.7 1 .3.3.6.5 1 .7.4.2.8.2 1.2.2.4 0 .8-.1 1.2-.2s.7-.4 1-.7c.3-.3.5-.6.7-1 0-.4.1-.8.1-1.3 0-.4-.1-.8-.2-1.2-.2-.4-.4-.7-.7-1-.3-.3-.6-.5-1-.7s-.8-.2-1.2-.2c-.4 0-.8.1-1.2.3-.4.2-.7.4-1 .7-.3.3-.5.6-.7 1-.1.3-.2.7-.2 1.2 0 .4.1.8.3 1.2zm6.1-4.5c.1.1.3.2.4.2h1.9c.2 0 .3-.1.4-.2.1-.1.2-.3.2-.5V2.5c0-.2-.1-.3-.2-.5-.1-.1-.3-.2-.4-.2h-1.8c-.2 0-.3.1-.4.2-.1.1-.2.3-.2.5v2c-.1 0 0 .1.1.3z"/></svg>