<?xml version="1.0" encoding="utf-8"?>
<!-- Generator: Adobe Illustrator 20.0.0, SVG Export Plug-In . SVG Version: 6.00 Build 0)  -->
<svg version="1.1" id="Layer_1" xmlns="http://www.w3.org/2000/svg" xmlns:xlink="http://www.w3.org/1999/xlink" x="0px" y="0px"
	 width="24px" height="40px" viewBox="0 0 24 40" style="enable-background:new 0 0 24 40;" xml:space="preserve">
<style type="text/css">
	.st0{fill:#003259;}
</style>
<path class="st0" d="M16.6,20L0.4,35.8C0.1,36,0,36.3,0,36.7c0,0.4,0.1,0.7,0.4,0.9l2.1,2C2.7,39.9,3.1,40,3.4,40
	c0.4,0,0.7-0.1,0.9-0.4l19.3-18.7c0.3-0.2,0.4-0.6,0.4-0.9s-0.1-0.7-0.4-0.9L4.4,0.4C4.1,0.1,3.8,0,3.5,0C3.1,0,2.8,0.1,2.6,0.4
	l-2.1,2C0.2,2.7,0.1,3,0.1,3.3c0,0.3,0.1,0.7,0.4,0.9C0.5,4.2,16.6,20,16.6,20z"/>
</svg>
