<?xml version="1.0" encoding="utf-8"?>
<!-- Generator: Adobe Illustrator 19.1.0, SVG Export Plug-In . SVG Version: 6.00 Build 0)  -->
<svg version="1.1" id="Layer_1" xmlns="http://www.w3.org/2000/svg" xmlns:xlink="http://www.w3.org/1999/xlink" x="0px" y="0px"
	 width="16px" height="16px" viewBox="0 0 16 16" style="enable-background:new 0 0 16 16;" xml:space="preserve">
<style type="text/css">
	.st0{fill:#424242;}
</style>
<g>
	<path class="st0" d="M15.6,13.9l-3.3-3.3c0.8-1.1,1.2-2.4,1.2-3.8c0-0.9-0.2-1.8-0.5-2.6c-0.4-0.8-0.8-1.6-1.4-2.2
		s-1.3-1.1-2.2-1.4C8.6,0.2,7.7,0,6.8,0C5.9,0,5,0.2,4.1,0.5C3.3,0.9,2.6,1.4,2,2C1.4,2.6,0.9,3.3,0.5,4.1C0.2,5,0,5.9,0,6.8
		c0,0.9,0.2,1.8,0.5,2.6C0.9,10.2,1.4,11,2,11.6c0.6,0.6,1.3,1.1,2.2,1.4c0.8,0.4,1.7,0.5,2.6,0.5c1.4,0,2.7-0.4,3.8-1.2l3.3,3.3
		c0.2,0.2,0.5,0.4,0.9,0.4c0.3,0,0.6-0.1,0.9-0.4c0.2-0.2,0.4-0.5,0.4-0.9C16,14.4,15.9,14.1,15.6,13.9z M9.8,9.8
		c-0.8,0.8-1.9,1.3-3,1.3c-1.2,0-2.2-0.4-3-1.3C2.9,9,2.5,8,2.5,6.8c0-1.2,0.4-2.2,1.3-3c0.8-0.8,1.9-1.3,3-1.3c1.2,0,2.2,0.4,3,1.3
		c0.8,0.8,1.3,1.9,1.3,3C11.1,8,10.7,9,9.8,9.8z"/>
</g>
</svg>
