<svg xmlns="http://www.w3.org/2000/svg" width="16" height="16"><path d="M16 3c-.6.3-1.3.4-1.9.5.7-.4 1.2-1 1.4-1.8-.7.4-1.3.7-2.1.8-.7-.7-1.4-1-2.4-1-.9 0-1.7.3-2.3 1-.6.6-1 1.4-1 2.3 0 .2 0 .5.1.8-1.3-.1-2.6-.4-3.8-1S1.8 3.2 1 2.2c-.2.4-.3 1-.3 1.6s.1 1.1.4 1.6.6.9 1.1 1.2c-.5 0-1-.2-1.5-.4 0 .8.2 1.5.7 2.1s1.1 1 1.9 1.1H1.8c.2.6.6 1.2 1.2 1.6s1.2.6 1.9.7c-1.2.9-2.5 1.4-4.1 1.4H0c1.5 1 3.2 1.5 5 1.5 1.2 0 2.3-.2 3.3-.6 1-.4 1.9-.9 2.6-1.5s1.3-1.3 1.9-2.1c.5-.8.9-1.6 1.2-2.5s.4-1.8.4-2.6v-.4C15 4.3 15.5 3.7 16 3z" fill="#333"/></svg>