<svg xmlns="http://www.w3.org/2000/svg" width="14" height="12" viewBox="0 0 14 12"><path d="M13.4 9.6h-12.8c-.2 0-.3.1-.4.2-.1.1-.2.2-.2.4v1.2c0 .2.1.3.2.4.1.1.2.2.4.2h12.8c.2 0 .3-.1.4-.2.1-.1.2-.3.2-.4v-1.2c0-.2-.1-.3-.2-.4-.1-.1-.2-.2-.4-.2zM13.8.2c-.1-.1-.2-.2-.4-.2h-12.8c-.2 0-.3.1-.4.2-.1.1-.2.2-.2.4v1.2c0 .2.1.3.2.4.1.1.3.2.4.2h12.8c.2 0 .3-.1.4-.2.1-.1.2-.2.2-.4v-1.2c0-.2-.1-.3-.2-.4zM13.4 4.8h-12.8c-.2 0-.3.1-.4.2-.1.1-.2.2-.2.4v1.2c0 .2.1.3.2.4.1.1.3.2.4.2h12.8c.2 0 .3-.1.4-.2.1-.1.2-.2.2-.4v-1.2c0-.2-.1-.3-.2-.4-.1-.1-.2-.2-.4-.2z"/></svg>