<svg xmlns="http://www.w3.org/2000/svg" width="13" height="11" viewBox="-1 3 13 11"><path d="M9 9.4h-.5c-.1 0-.1 0-.2.1 0 0-.1.1-.1.2V12c0 .3-.1.6-.3.8s-.5.3-.8.3h-6c-.3 0-.6-.1-.8-.3s-.4-.5-.4-.9V6c0-.3.1-.6.3-.8.2-.2.5-.3.8-.3h5.1c.1 0 .1 0 .2-.1 0 0 .1-.1.1-.2v-.5c0-.1 0-.1-.1-.2 0 0-.1-.1-.2-.1h-5c-.6.1-1.1.3-1.5.7S-1 5.4-1 6v6c0 .6.2 1.1.6 1.5.4.3.9.5 1.5.5h6c.6 0 1.1-.2 1.5-.6.4-.4.6-.9.6-1.5V9.6c0-.1 0-.1-.1-.2H9zm2.9-6.3c-.1-.1-.2-.1-.4-.1H7.8c-.1 0-.2 0-.3.1-.1.1-.1.2-.1.4s0 .2.1.3L8.8 5 4 9.7v.3l.8.8s.1.1.2.1.1 0 .2-.1l4.7-4.7 1.3 1.3c.1.1.2.1.3.1s.2 0 .3-.1.2-.2.2-.3V3.5c0-.2 0-.3-.1-.4z" fill="#fff"/></svg>