<?xml version="1.0" encoding="utf-8"?>
<!-- Generator: Adobe Illustrator 20.0.0, SVG Export Plug-In . SVG Version: 6.00 Build 0)  -->
<svg version="1.1" id="Layer_1" xmlns="http://www.w3.org/2000/svg" xmlns:xlink="http://www.w3.org/1999/xlink" x="0px" y="0px"
	 width="12px" height="12px" viewBox="0 0 12 12" style="enable-background:new 0 0 12 12;" xml:space="preserve">
<style type="text/css">
	.st0{fill:#FFFFFF;}
</style>
<path class="st0" d="M11.7,10.2L9.3,7.8C9.9,6.9,10.2,6,10.2,5c0-0.7-0.1-1.3-0.4-2C9.5,2.5,9.1,1.9,8.7,1.5C8.2,1,7.7,0.7,7,0.4
	C6.4,0.1,5.8,0,5.1,0s-1.3,0.1-2,0.4C2.5,0.7,1.9,1,1.5,1.5C1,1.9,0.7,2.5,0.4,3.1S0,4.4,0,5.1s0.1,1.3,0.4,2C0.7,7.7,1,8.2,1.5,8.7
	s1,0.8,1.6,1.1s1.3,0.4,2,0.4c1.1,0,2-0.3,2.9-0.9l2.5,2.5c0.2,0.1,0.4,0.2,0.6,0.2c0.3,0,0.5-0.1,0.6-0.3c0.2-0.2,0.3-0.4,0.3-0.6
	C12,10.6,11.9,10.4,11.7,10.2z M7.4,7.2C6.7,7.8,6,8.1,5.1,8.1S3.4,7.8,2.8,7.2c-0.6-0.7-1-1.4-1-2.3s0.3-1.7,0.9-2.3
	C3.3,2.2,4.1,1.9,5,1.9s1.7,0.3,2.3,0.9c0.7,0.6,1,1.4,1,2.3C8.3,6,8,6.5,7.4,7.2z"/>
</svg>
