<svg xmlns="http://www.w3.org/2000/svg" width="16" height="16"><path d="M15.6 13.9l-3.3-3.3c.8-1.1 1.2-2.4 1.2-3.8 0-.9-.2-1.8-.5-2.6-.4-.8-.8-1.6-1.4-2.2S10.3.9 9.4.6C8.6.2 7.7 0 6.8 0 5.9 0 5 .2 4.1.5 3.3.9 2.6 1.4 2 2 1.4 2.6.9 3.3.5 4.1.2 5 0 5.9 0 6.8c0 .9.2 1.8.5 2.6.4.8.9 1.6 1.5 2.2.6.6 1.3 1.1 2.2 1.4.8.4 1.7.5 2.6.5 1.4 0 2.7-.4 3.8-1.2l3.3 3.3c.2.2.5.4.9.4.3 0 .6-.1.9-.4.2-.2.4-.5.4-.9-.1-.3-.2-.6-.5-.8zM9.8 9.8c-.8.8-1.9 1.3-3 1.3-1.2 0-2.2-.4-3-1.3-.9-.8-1.3-1.8-1.3-3s.4-2.2 1.3-3c.8-.8 1.9-1.3 3-1.3 1.2 0 2.2.4 3 1.3.8.8 1.3 1.9 1.3 3 0 1.2-.4 2.2-1.3 3z" fill="#424242"/></svg>