<svg xmlns="http://www.w3.org/2000/svg" width="13" height="11" viewBox="0 0 13 11"><style type="text/css">.st0{fill:#003259;}</style><path class="st0" d="M10 6.4h-.5c-.1 0-.1 0-.2.1 0 0-.1.1-.1.2v2.3c0 .3-.1.6-.3.8-.2.2-.5.3-.8.3h-6c-.3 0-.6-.1-.8-.3s-.4-.5-.4-.9v-5.9c0-.3.1-.6.3-.8.2-.2.5-.3.8-.3h5.1c.1 0 .1 0 .2-.1 0 0 .1-.1.1-.2v-.5c0-.1 0-.1-.1-.2 0 0-.1-.1-.2-.1h-5c-.6.1-1.1.3-1.5.7-.4.4-.6.9-.6 1.5v6c0 .6.2 1.1.6 1.5.4.3.9.5 1.5.5h6c.6 0 1.1-.2 1.5-.6.4-.4.6-.9.6-1.5v-2.3c0-.1 0-.1-.1-.2h-.1zM12.9.1c-.1-.1-.2-.1-.4-.1h-3.7c-.1 0-.2 0-.3.1s-.1.2-.1.4 0 .2.1.3l1.3 1.2-4.8 4.7v.30000000000000004l.8.8s.1.1.2.1.1 0 .2-.1l4.7-4.7 1.3 1.3c.1.1.2.1.3.1.1 0 .2 0 .3-.1s.2-.2.2-.3v-3.6c0-.2 0-.3-.1-.4z"/></svg>