<svg xmlns="http://www.w3.org/2000/svg" width="12" height="12"><path d="M11.7 10.2L9.3 7.8c.6-.9.9-1.8.9-2.8 0-.7-.1-1.3-.4-2-.3-.5-.7-1.1-1.1-1.5C8.2 1 7.7.7 7 .4 6.4.1 5.8 0 5.1 0s-1.3.1-2 .4c-.6.3-1.2.6-1.6 1.1-.5.4-.8 1-1.1 1.6S0 4.4 0 5.1s.1 1.3.4 2c.3.6.6 1.1 1.1 1.6s1 .8 1.6 1.1 1.3.4 2 .4c1.1 0 2-.3 2.9-.9l2.5 2.5c.2.1.4.2.6.2.3 0 .5-.1.6-.3.2-.2.3-.4.3-.6 0-.5-.1-.7-.3-.9zm-4.3-3c-.7.6-1.4.9-2.3.9s-1.7-.3-2.3-.9c-.6-.7-1-1.4-1-2.3s.3-1.7.9-2.3c.6-.4 1.4-.7 2.3-.7s1.7.3 2.3.9c.7.6 1 1.4 1 2.3 0 .9-.3 1.4-.9 2.1z" fill="#fff"/></svg>