<svg xmlns="http://www.w3.org/2000/svg" width="16" height="16" viewBox="0 0 16 16"><style type="text/css">.st0{fill:#FFFFFF;}</style><path class="st0" d="M1.5 5.6l1.8 1.3c1 .7 1.8 1.2 2.3 1.6.1 0 .2.1.4.3.3.1.4.2.6.3l.4.3s.4.2.5.2c.2.1.4.1.5.1.1 0 .3 0 .4-.1s.4-.1.6-.2l.5-.3c.1-.1.2-.2.4-.3.2-.1.3-.2.4-.3.5-.4 1.9-1.3 4.2-2.9.4-.3.8-.7 1.1-1.1.3-.4.4-.9.4-1.4 0-.4-.1-.7-.4-1s-.6-.4-1-.4h-13.2c-.4 0-.8.2-1 .5s-.4.7-.4 1.1c0 .4.2.8.5 1.2.3.5.7.8 1 1.1zM15.1 6.5c-2 1.3-3.4 2.3-4.4 3.1-.3.2-.6.4-.8.6-.2.1-.5.3-.8.4-.4.1-.7.2-1 .2-.3 0-.6-.1-1-.2s-.6-.3-.8-.4c-.3-.1-.6-.3-1-.6-.8-.6-2.2-1.6-4.4-3.1-.3-.2-.6-.4-.9-.7v7.1c0 .4.1.7.4 1 .3.3.6.4 1 .4h13.1c.4 0 .7-.1 1-.4.3-.3.4-.6.4-1v-7.1c-.2.3-.5.5-.8.7z"/></svg>