<svg xmlns="http://www.w3.org/2000/svg" width="12" height="12" viewBox="-1.1 2.9 12 12" enable-background="new -1.1 2.9 12 12"><style type="text/css">.st0{fill:#005EA5;}</style><path class="st0" d="M7.7 8.9l3-3c.2-.2.3-.4.3-.7s-.1-.5-.3-.7l-1.5-1.3c-.2-.2-.4-.3-.7-.3-.3 0-.5.1-.6.3l-3 3-3-3c-.1-.2-.3-.3-.6-.3s-.5.1-.7.3l-1.4 1.4c-.2.2-.3.4-.3.7s.1.5.3.6l3 3-3 3c-.2.1-.3.3-.3.6s.1.5.3.7l1.4 1.4c.2.2.4.3.7.3s.5-.1.7-.3l3-3 3 3c.2.2.4.3.7.3.3 0 .5-.1.7-.3l1.4-1.4c.2-.2.3-.4.3-.7s-.1-.5-.3-.7c-.2.1-3.1-2.9-3.1-2.9z"/></svg>