<svg xmlns="http://www.w3.org/2000/svg" width="12" height="12" viewBox="499.5 -4.1 12 12" enable-background="new 499.5 -4.1 12 12"><style type="text/css">.st0{fill:#FFFFFF;}</style><path class="st0" d="M508.3 1.9l3-3c.2-.2.3-.4.3-.7 0-.3-.1-.5-.3-.7l-1.4-1.4c-.2-.2-.4-.3-.7-.3s-.5.1-.7.3l-3 3-3-3c-.2-.2-.4-.3-.7-.3s-.5.1-.7.3l-1.4 1.4c-.2.2-.3.4-.3.7 0 .3.1.5.3.7l3 3-3 3c-.2.2-.3.4-.3.7s.1.5.3.7l1.4 1.4c.2.2.4.3.7.3s.5-.1.7-.3l3-3 3 3c.2.2.4.3.7.3s.5-.1.7-.3l1.4-1.4c.2-.2.3-.4.3-.7s-.1-.5-.3-.7l-3-3z"/></svg>