<svg xmlns="http://www.w3.org/2000/svg" width="14" height="12"><path d="M13.4 9.6H.6c-.2 0-.3.1-.4.2-.1.1-.2.2-.2.4v1.2c0 .2.1.3.2.4.1.1.2.2.4.2h12.8c.2 0 .3-.1.4-.2.1-.1.2-.3.2-.4v-1.2c0-.2-.1-.3-.2-.4-.1-.1-.2-.2-.4-.2zm.4-9.4c-.1-.1-.2-.2-.4-.2H.6C.4 0 .3.1.2.2.1.3 0 .4 0 .6v1.2c0 .2.1.3.2.4.1.1.3.2.4.2h12.8c.2 0 .3-.1.4-.2.1-.1.2-.2.2-.4V.6c0-.2-.1-.3-.2-.4zm-.4 4.6H.6c-.2 0-.3.1-.4.2-.1.1-.2.2-.2.4v1.2c0 .2.1.3.2.4.1.1.3.2.4.2h12.8c.2 0 .3-.1.4-.2.1-.1.2-.2.2-.4V5.4c0-.2-.1-.3-.2-.4-.1-.1-.2-.2-.4-.2z"/></svg>