<svg xmlns="http://www.w3.org/2000/svg" width="16" height="16" viewBox="0 0 16 16"><style type="text/css">.st0{fill:#FFFFFF;}</style><path class="st0" d="M.2 5.3h3.4v10.3h-3.4zM14.9 6.3c-.7-.8-1.7-1.2-2.9-1.2-.4 0-.8.1-1.2.2s-.7.3-.9.5c-.2.1-.4.3-.5.4-.2.2-.3.4-.4.6v-1.5h-3.5v10.3h3.5v-5.7c0-.4 0-.6.1-.9.1-.4.4-.6.7-.9.3-.2.7-.4 1.1-.4.6 0 1 .2 1.3.6.3.4.4 1 .4 1.7v5.5h3.4v-5.8c0-1.5-.4-2.6-1.1-3.4zM1.9.4c-.6 0-1 .2-1.4.5s-.5.7-.5 1.2.2.9.5 1.3.8.5 1.4.5c.6 0 1.1-.2 1.4-.5s.5-.8.5-1.3-.2-.9-.5-1.3c-.3-.3-.8-.4-1.4-.4z"/></svg>