<svg xmlns="http://www.w3.org/2000/svg" width="16" height="16" viewBox="0 0 16 16"><style type="text/css">.st0{fill:#333333;}</style><path class="st0" d="M16 3c-.6.3-1.3.4-1.9.5.7-.4 1.2-1 1.4-1.8-.7.4-1.3.7-2.1.8-.7-.7-1.4-1-2.4-1-.9 0-1.7.3-2.3 1-.6.6-1 1.4-1 2.3 0 .2 0 .5.1.8-1.3-.1-2.6-.4-3.8-1s-2.2-1.4-3-2.4c-.2.4-.3 1-.3 1.6s.1 1.1.4 1.6.6.9 1.1 1.2c-.5 0-1-.2-1.5-.4 0 .8.2 1.5.7 2.1s1.1 1 1.9 1.1h-1.5c.2.6.6 1.2 1.2 1.6s1.2.6 1.9.7c-1.2.9-2.5 1.4-4.1 1.4h-.8c1.5 1 3.2 1.5 5 1.5 1.2 0 2.3-.2 3.3-.6 1-.4 1.9-.9 2.6-1.5s1.3-1.3 1.9-2.1c.5-.8.9-1.6 1.2-2.5s.4-1.8.4-2.6v-.4c.6-.6 1.1-1.2 1.6-1.9z"/></svg>