<?xml version="1.0" encoding="UTF-8"?>
<svg width="51px" height="51px" viewBox="0 0 51 51" version="1.1" xmlns="http://www.w3.org/2000/svg" xmlns:xlink="http://www.w3.org/1999/xlink">
    <title>Artboard</title>
    <g id="Artboard" stroke="none" stroke-width="1" fill="none" fill-rule="evenodd">
        <g id="tailwind" transform="translate(0, 10)" fill="#38BDF8">
            <path d="M25.517,0 C18.712,0 14.46,3.382 12.758,10.146 C15.31,6.764 18.287,5.496 21.689,6.341 C23.63,6.823 25.018,8.223 26.553,9.773 C29.055,12.297 31.951,15.218 38.275,15.218 C45.079,15.218 49.332,11.836 51.033,5.073 C48.482,8.455 45.505,9.723 42.103,8.877 C40.161,8.395 38.773,6.995 37.238,5.446 C34.736,2.92 31.841,0 25.517,0 Z M12.758,15.218 C5.954,15.218 1.701,18.6 0,25.364 C2.552,21.982 5.529,20.714 8.93,21.559 C10.872,22.041 12.26,23.441 13.795,24.991 C16.297,27.515 19.192,30.436 25.517,30.436 C32.321,30.436 36.574,27.055 38.275,20.291 C35.723,23.673 32.746,24.941 29.344,24.096 C27.403,23.613 26.015,22.213 24.48,20.664 C21.978,18.14 19.082,15.218 12.758,15.218 Z" id="Shape"></path>
        </g>
    </g>
</svg>