<?xml version="1.0" encoding="UTF-8"?>
<svg width="800px" height="800px" viewBox="0 0 800 800" version="1.1" xmlns="http://www.w3.org/2000/svg" xmlns:xlink="http://www.w3.org/1999/xlink">
    <title>Artboard</title>
    <g id="Artboard" stroke="none" stroke-width="1" fill="none" fill-rule="evenodd">
        <path d="M577.419355,238.966713 L700,113.578185 L688.709677,102.325368 C548.387097,-31.1008862 333.870968,-34.3159767 208.064516,94.2876421 C146.774194,156.981906 116.129032,242.181804 120.967742,332.204337 C125.806452,415.796689 161.290323,496.173951 222.580645,560.47576 L100,685.864288 L111.290323,697.117105 C179.032258,761.418914 264.516129,798.392455 354.83871,800 L361.290323,800 C450,800 530.645161,766.24155 590.322581,705.154831 C651.612903,642.460567 682.258065,558.868215 677.419355,467.238136 C672.580645,382.038239 637.096774,303.268523 577.419355,238.966713 Z M230.955569,117.238854 C285.804269,60.9490446 360.011333,32 435.831595,32 C511.651856,32 589.085315,59.3407643 652,115.630573 L243.861145,537 C190.625642,480.710191 158.361701,406.729299 153.52211,331.140127 C148.682519,249.117834 177.720066,173.528662 230.955569,117.238854 Z M568.023842,682.710938 C513.177824,738.994014 438.974388,769.547684 356.705362,767.939596 C279.27569,766.331508 205.072254,737.385926 147,684.319026 L245.400208,583.009489 L555.118896,263 C609.964914,320.891164 642.227277,393.255119 645.453514,468.835249 C650.292868,550.847731 622.869859,626.427862 568.023842,682.710938 Z" id="Shape" fill="#000000" fill-rule="nonzero"></path>
    </g>
</svg>
