<?xml version="1.0" encoding="utf-8"?><svg xmlns="http://www.w3.org/2000/svg" xmlns:xlink="http://www.w3.org/1999/xlink" width="781" height="759" viewBox="0 0 781 759"><svg xmlns="http://www.w3.org/2000/svg" width="35" height="23" viewBox="-5 -5 35 23"><path fill="#252526" d="M24.31 13L12.5 1.36.69 13 0 12.32 12.5 0 25 12.32l-.69.68z"/></svg><svg xmlns="http://www.w3.org/2000/svg" width="19" height="26" x="35" y="23" viewBox="-5 -5 19 26"><path fill="#313132" d="M2.774 8.027L8.85 1.686c.111-.08.15-.201.15-.362 0-.16-.039-.281-.149-.361L8.062.161C7.987.04 7.837 0 7.724 0c-.15 0-.261.04-.336.161L.149 7.667c-.112.08-.149.24-.149.36s.038.281.15.362l7.199 7.505c.114.12.225.16.339.16.149 0 .262-.04.337-.16l.787-.803c.113-.12.149-.24.149-.36s-.036-.281-.149-.362L2.774 8.027z"/></svg><svg xmlns="http://www.w3.org/2000/svg" width="19" height="26" x="54" y="49" viewBox="-5 -5 19 26"><path fill="#313132" d="M6.225 8.027L.149 14.368c-.11.08-.149.201-.149.362 0 .16.039.28.149.36l.788.803c.075.121.226.161.339.161.15 0 .261-.04.336-.161L8.85 8.388c.112-.08.15-.241.15-.361s-.038-.281-.15-.361L1.651.16A.448.448 0 0 0 1.312 0C1.163 0 1.05.04.975.16L.188.963c-.113.12-.149.24-.149.36s.036.281.149.362l6.037 6.342z"/></svg><svg xmlns="http://www.w3.org/2000/svg" width="21" height="16" x="73" y="75" viewBox="-5 -5 21 16"><path fill="##204ad4" d="M5.5 4.15L1.156.1C1.102.026 1.018 0 .907 0 .798 0 .716.026.661.1L.11.625C.027.676 0 .775 0 .852c0 .101.027.174.11.224L5.253 5.9c.055.076.164.1.247.1.082 0 .192-.024.247-.1l5.143-4.799c.081-.076.11-.149.11-.225 0-.101-.029-.176-.109-.226l-.549-.524c-.084-.076-.166-.1-.248-.1s-.194.024-.25.1L5.5 4.15z"/></svg><svg xmlns="http://www.w3.org/2000/svg" width="21" height="16" x="94" y="91" viewBox="-5 -5 21 16"><path fill="#003259" d="M5.5 4.15L1.156.1C1.101.026 1.017 0 .907 0S.715.026.661.1L.11.625C.027.675 0 .775 0 .851c0 .101.027.174.11.224L5.253 5.9c.055.076.164.1.247.1.082 0 .192-.024.247-.1l5.143-4.799c.081-.076.11-.149.11-.226 0-.1-.029-.175-.109-.225l-.549-.525c-.084-.076-.166-.099-.248-.099S9.9.05 9.844.125L5.5 4.15z"/></svg><svg xmlns="http://www.w3.org/2000/svg" width="21" height="16" x="115" y="107" viewBox="-5 -5 21 16"><path fill="#FFF" d="M5.5 4.15L1.156.1C1.102.026 1.018 0 .907 0 .798 0 .716.026.661.1L.11.625C.027.676 0 .775 0 .852c0 .101.027.174.11.224L5.253 5.9c.055.076.164.1.247.1.082 0 .192-.024.247-.1l5.143-4.799c.081-.076.11-.149.11-.225 0-.101-.029-.176-.109-.226l-.549-.524c-.084-.076-.166-.1-.248-.1s-.194.024-.25.1L5.5 4.15z"/></svg><svg xmlns="http://www.w3.org/2000/svg" width="21" height="16" x="136" y="123" viewBox="-5 -5 21 16"><path fill="#005EA5" d="M5.5 1.85L9.844 5.9c.054.074.138.1.249.1.109 0 .191-.026.246-.1l.551-.525c.083-.051.11-.15.11-.227 0-.101-.027-.174-.11-.224L5.747.1C5.692.024 5.583 0 5.5 0c-.083 0-.193.024-.248.1L.109 4.898c-.08.077-.109.15-.109.226 0 .101.029.176.109.226l.549.524c.084.076.166.1.248.1s.193-.023.25-.1L5.5 1.85z"/></svg><svg xmlns="http://www.w3.org/2000/svg" width="21" height="16" x="157" y="139" viewBox="-5 -5 21 16"><path fill="#0042a3" d="M5.5 1.85L9.844 5.9c.054.074.138.1.249.1.109 0 .191-.026.246-.1l.551-.525c.083-.051.11-.15.11-.227 0-.101-.027-.174-.11-.224L5.747.1C5.692.024 5.583 0 5.5 0c-.083 0-.193.024-.248.1L.109 4.898c-.08.077-.109.15-.109.226 0 .101.029.176.109.226l.549.524c.084.076.166.1.248.1s.193-.023.25-.1L5.5 1.85z"/></svg><svg xmlns="http://www.w3.org/2000/svg" width="21" height="16" x="178" y="155" viewBox="-5 -5 21 16"><path fill="#FFF" d="M5.5 1.85L9.844 5.9c.054.074.138.1.249.1.109 0 .191-.026.246-.1l.551-.525c.083-.051.11-.15.11-.227 0-.101-.027-.174-.11-.224L5.747.1C5.692.024 5.583 0 5.5 0c-.083 0-.193.024-.248.1L.109 4.898c-.08.077-.109.15-.109.226 0 .101.029.176.109.226l.549.524c.084.076.166.1.248.1s.193-.023.25-.1L5.5 1.85z"/></svg><svg xmlns="http://www.w3.org/2000/svg" width="21" height="16" x="199" y="171" viewBox="-5 -5 21 16"><path fill="#999" d="M5.5 4.15L1.156.1C1.102.026 1.018 0 .906 0 .797 0 .715.026.66.1L.109.625C.027.676 0 .775 0 .852c0 .101.027.174.109.224L5.253 5.9c.055.076.165.1.247.1s.193-.024.248-.1l5.143-4.799c.08-.076.109-.149.109-.225 0-.101-.029-.176-.109-.226l-.549-.524c-.084-.076-.166-.1-.248-.1s-.194.024-.25.1L5.5 4.15z"/></svg><svg xmlns="http://www.w3.org/2000/svg" width="16" height="21" x="220" y="187" viewBox="-5 -5 16 21"><path fill="#204ad4" d="M1.8 5.5l4.1-4.3C6 1.1 6 1 6 .9c0-.1 0-.2-.1-.2L5.4.1C5.3 0 5.2 0 5.1 0 5 0 5 0 4.9.1L.1 5.3c-.1 0-.1.1-.1.2s0 .2.1.2l4.8 5.1c.1.2.1.2.2.2s.2 0 .2-.1l.5-.5c.1-.1.2-.2.2-.3s0-.2-.1-.2c0-.1-4.1-4.4-4.1-4.4z"/></svg><svg xmlns="http://www.w3.org/2000/svg" width="16" height="21" x="236" y="208" viewBox="-5 -5 16 21"><path fill="#0042a3" d="M1.8 5.5l4.1-4.3C6 1.1 6 1 6 .9c0-.1 0-.2-.1-.2L5.4.1C5.3 0 5.2 0 5.1 0 5 0 5 0 4.9.1L.1 5.3c-.1 0-.1.1-.1.2s0 .2.1.2l4.8 5.1c.1.2.1.2.2.2s.2 0 .2-.1l.5-.5c.1-.1.2-.2.2-.3s0-.2-.1-.2c0-.1-4.1-4.4-4.1-4.4z"/></svg><svg xmlns="http://www.w3.org/2000/svg" width="16" height="21" x="252" y="229" viewBox="-5 -5 16 21"><path fill="#999" d="M4.15 5.5L.1 9.843c-.074.055-.1.139-.1.25 0 .109.026.191.1.246l.525.551c.051.082.15.11.227.11.101 0 .174-.027.224-.109L5.9 5.747c.076-.055.1-.165.1-.247s-.024-.193-.1-.248L1.102.109C1.025.029.952 0 .876 0 .775 0 .7.029.65.109L.126.658c-.076.084-.1.166-.1.248s.023.193.1.25L4.15 5.5z"/></svg><svg xmlns="http://www.w3.org/2000/svg" width="30" height="30" x="268" y="250" viewBox="-5 -5 30 30"><path fill="#313132" d="M20 1.3L18.7 0 10 8.7 1.3 0 0 1.3 8.7 10 0 18.7 1.3 20l8.7-8.7 8.7 8.7 1.3-1.3-8.7-8.7z"/></svg><svg xmlns="http://www.w3.org/2000/svg" width="22" height="22" x="298" y="280" viewBox="-5 -5 22 22"><path fill="#204ad4" d="M12 1.2L10.8 0 6 4.8 1.2 0 0 1.2 4.8 6 0 10.8 1.2 12 6 7.2l4.8 4.8 1.2-1.2L7.2 6 12 1.2zm0 0"/></svg><svg xmlns="http://www.w3.org/2000/svg" width="22" height="22" x="320" y="302" viewBox="-5 -5 22 22"><path d="M12 1.2L10.8 0 6 4.8 1.2 0 0 1.2 4.8 6 0 10.8 1.2 12 6 7.2l4.8 4.8 1.2-1.2L7.2 6 12 1.2z" style="fill:#d9534f"/></svg><svg xmlns="http://www.w3.org/2000/svg" width="30" height="30" x="342" y="324" viewBox="-5 -5 30 30"><path fill="#FFF" d="M20 1.3L18.7 0 10 8.7 1.3 0 0 1.3 8.7 10 0 18.7 1.3 20l8.7-8.7 8.7 8.7 1.3-1.3-8.7-8.7z"/></svg><svg xmlns="http://www.w3.org/2000/svg" width="26" height="26" x="372" y="354" viewBox="-5 -5 26 26"><path fill="#333" d="M1.5 5.6l1.8 1.3s1.8 1.2 2.3 1.6c.1 0 .2.1.4.3.3.1.4.2.6.3l.4.3s.4.2.5.2c.2.1.4.1.5.1.1 0 .3 0 .4-.1s.4-.1.6-.2.3-.2.5-.3c.1-.1.2-.2.4-.3.2-.1.3-.2.4-.3.5-.4 1.9-1.3 4.2-2.9.4-.3.8-.7 1.1-1.1s.4-.9.4-1.4c0-.4-.1-.7-.4-1s-.6-.4-1-.4H1.4c-.4 0-.8.2-1 .5S0 2.9 0 3.3s.2.8.5 1.2c.3.5.7.8 1 1.1zm13.6.9c-2 1.3-3.4 2.3-4.4 3.1-.3.2-.6.4-.8.6-.2.1-.5.3-.8.4-.4.1-.7.2-1 .2-.3 0-.6-.1-1-.2s-.6-.3-.8-.4c-.3-.1-.6-.3-1-.6C4.5 9 3.1 8 .9 6.5c-.3-.2-.6-.4-.9-.7v7.1c0 .4.1.7.4 1s.6.4 1 .4h13.1c.4 0 .7-.1 1-.4.3-.3.4-.6.4-1V5.8c-.2.3-.5.5-.8.7z"/></svg><svg xmlns="http://www.w3.org/2000/svg" width="26" height="26" x="398" y="380" viewBox="-5 -5 26 26"><path fill="#fff" d="M1.5 5.6l1.8 1.3c1 .7 1.8 1.2 2.3 1.6.1 0 .2.1.4.3.3.1.4.2.6.3l.4.3s.4.2.5.2c.2.1.4.1.5.1.1 0 .3 0 .4-.1s.4-.1.6-.2l.5-.3c.1-.1.2-.2.4-.3.2-.1.3-.2.4-.3.5-.4 1.9-1.3 4.2-2.9.4-.3.8-.7 1.1-1.1.3-.4.4-.9.4-1.4 0-.4-.1-.7-.4-1s-.6-.4-1-.4H1.4c-.4 0-.8.2-1 .5S0 2.9 0 3.3c0 .4.2.8.5 1.2.3.5.7.8 1 1.1zm13.6.9c-2 1.3-3.4 2.3-4.4 3.1-.3.2-.6.4-.8.6-.2.1-.5.3-.8.4-.4.1-.7.2-1 .2-.3 0-.6-.1-1-.2s-.6-.3-.8-.4c-.3-.1-.6-.3-1-.6C4.5 9 3.1 8 .9 6.5c-.3-.2-.6-.4-.9-.7v7.1c0 .4.1.7.4 1 .3.3.6.4 1 .4h13.1c.4 0 .7-.1 1-.4.3-.3.4-.6.4-1V5.8c-.2.3-.5.5-.8.7z"/></svg><svg xmlns="http://www.w3.org/2000/svg" width="18" height="18" x="424" y="406" data-name="Layer 1" viewBox="-5 -5 18 18"><path fill="#204ad4" d="M8 .26v7H6.38V2.74l-.73.77L1.15 8 0 6.86l4.51-4.5.84-.8H.87V0h6.87z" data-name="Layer 2"/></svg><svg xmlns="http://www.w3.org/2000/svg" width="18" height="18" x="442" y="424" data-name="Layer 1" viewBox="-5 -5 18 18"><path fill="#FFF" d="M8 .26v7H6.38V2.74l-.73.77L1.15 8 0 6.86l4.51-4.5.84-.8H.87V0h6.87z" data-name="Layer 2"/></svg><svg xmlns="http://www.w3.org/2000/svg" width="26" height="26" x="460" y="442" viewBox="-5 -5 26 26"><path fill="#333" d="M9.2 5.2V3.4s.1-.2.1-.3c.1-.1.2-.2.3-.2l.6-.1h1.4V0H9.5C8.2 0 7.3.3 6.8.9s-.9 1.5-.9 2.7v1.7H4.3V8h1.6v8h3.3V8h2.2l.3-2.8H9.2z"/></svg><svg xmlns="http://www.w3.org/2000/svg" width="26" height="26" x="486" y="468" viewBox="-5 -5 26 26"><path fill="#fff" d="M9.2 5.2V3.4s.1-.2.1-.3c.1-.1.2-.2.3-.2l.6-.1h1.4V0H9.5C8.2 0 7.3.3 6.8.9s-.9 1.5-.9 2.7v1.7H4.3V8h1.6v8h3.3V8h2.2l.3-2.8H9.2z"/></svg><svg xmlns="http://www.w3.org/2000/svg" width="24" height="24" x="512" y="494" viewBox="-5 -5 24 24"><path fill="#333" d="M8.7 6.6c-.2.2-.2.4-.2.6v6.4c0 .4-.5.6-.7.3l-1.8-2c-.2-.3-.4-.4-.4-.7V7.3c0-.2-.1-.4-.2-.6L.2 1.1C-.2.7.1 0 .7 0h12.7c.6 0 .9.7.5 1.1L8.7 6.6zm0 0"/></svg><svg xmlns="http://www.w3.org/2000/svg" width="26" height="26" x="536" y="518" viewBox="-5 -5 26 26"><path fill="#333" d="M.2 5.3h3.4v10.3H.2zm14.7 1c-.7-.8-1.7-1.2-2.9-1.2-.4 0-.8.1-1.2.2s-.7.3-.9.5c-.2.1-.4.3-.5.4-.2.2-.3.4-.4.6V5.3H5.5v10.3H9V9.9c0-.4 0-.6.1-.9.1-.4.4-.6.7-.9.3-.2.7-.4 1.1-.4.6 0 1 .2 1.3.6.3.4.4 1 .4 1.7v5.5H16V9.7c0-1.5-.4-2.6-1.1-3.4zM1.9.4C1.3.4.9.6.5.9S0 1.6 0 2.1s.2.9.5 1.3.8.5 1.4.5c.6 0 1.1-.2 1.4-.5s.5-.8.5-1.3-.2-.9-.5-1.3C3 .5 2.5.4 1.9.4z"/></svg><svg xmlns="http://www.w3.org/2000/svg" width="26" height="26" x="562" y="544" viewBox="-5 -5 26 26"><path fill="#fff" d="M.2 5.3h3.4v10.3H.2zm14.7 1c-.7-.8-1.7-1.2-2.9-1.2-.4 0-.8.1-1.2.2s-.7.3-.9.5c-.2.1-.4.3-.5.4-.2.2-.3.4-.4.6V5.3H5.5v10.3H9V9.9c0-.4 0-.6.1-.9.1-.4.4-.6.7-.9.3-.2.7-.4 1.1-.4.6 0 1 .2 1.3.6.3.4.4 1 .4 1.7v5.5H16V9.7c0-1.5-.4-2.6-1.1-3.4zM1.9.4C1.3.4.9.6.5.9S0 1.6 0 2.1s.2.9.5 1.3.8.5 1.4.5c.6 0 1.1-.2 1.4-.5s.5-.8.5-1.3-.2-.9-.5-1.3C3 .5 2.5.4 1.9.4z"/></svg><svg xmlns="http://www.w3.org/2000/svg" width="30" height="28" x="588" y="570" viewBox="-5 -5 30 28"><path d="M0 0h20v2H0zm0 8h20v2H0zm0 8h20v2H0z" style="fill:#313132"/></svg><svg xmlns="http://www.w3.org/2000/svg" width="30" height="28" x="618" y="598" viewBox="-5 -5 30 28"><path d="M0 0h20v2H0zm0 8h20v2H0zm0 8h20v2H0z" style="fill:#fff"/></svg><svg width="25" height="25" x="648" y="626" viewBox="-5 -5 25 25"><path fill="#898989" d="M5.725 13.348a2.563 2.563 0 0 1-3.699-3.547l8.424-8.79a1.921 1.921 0 0 1 2.776 2.658l-6.894 7.193a1.277 1.277 0 0 1-1.812.038 1.28 1.28 0 0 1-.04-1.81l5.324-5.553.337.321-5.325 5.555a.815.815 0 0 0 1.175 1.128l6.896-7.193a1.456 1.456 0 0 0-2.101-2.015l-8.427 8.79a2.102 2.102 0 0 0 .063 2.965 2.098 2.098 0 0 0 2.965-.062l6.853-7.152.338.323-6.853 7.151z"/></svg><svg xmlns="http://www.w3.org/2000/svg" width="28" height="28" x="673" y="651" data-name="Layer 1" viewBox="-5 -5 28 28"><path fill="#313132" d="M18 16.56l-5.69-5.69A6.82 6.82 0 1 0 2 11.65a6.82 6.82 0 0 0 8.88.66L16.56 18zM3.43 10.21a4.79 4.79 0 1 1 6.78 0 4.8 4.8 0 0 1-6.78 0z"/></svg><svg xmlns="http://www.w3.org/2000/svg" width="28" height="28" x="701" y="679" data-name="Layer 1" viewBox="-5 -5 28 28"><path fill="#FFF" d="M18 16.56l-5.69-5.69A6.82 6.82 0 1 0 2 11.65a6.82 6.82 0 0 0 8.88.66L16.56 18zM3.43 10.21a4.79 4.79 0 1 1 6.78 0 4.8 4.8 0 0 1-6.78 0z"/></svg><svg xmlns="http://www.w3.org/2000/svg" width="26" height="26" x="729" y="707" viewBox="-5 -5 26 26"><path fill="#333" d="M16 3c-.6.3-1.3.4-1.9.5.7-.4 1.2-1 1.4-1.8-.7.4-1.3.7-2.1.8-.7-.7-1.4-1-2.4-1-.9 0-1.7.3-2.3 1-.6.6-1 1.4-1 2.3 0 .2 0 .5.1.8-1.3-.1-2.6-.4-3.8-1S1.8 3.2 1 2.2c-.2.4-.3 1-.3 1.6s.1 1.1.4 1.6.6.9 1.1 1.2c-.5 0-1-.2-1.5-.4 0 .8.2 1.5.7 2.1s1.1 1 1.9 1.1H1.8c.2.6.6 1.2 1.2 1.6s1.2.6 1.9.7c-1.2.9-2.5 1.4-4.1 1.4H0c1.5 1 3.2 1.5 5 1.5 1.2 0 2.3-.2 3.3-.6 1-.4 1.9-.9 2.6-1.5s1.3-1.3 1.9-2.1c.5-.8.9-1.6 1.2-2.5s.4-1.8.4-2.6v-.4C15 4.3 15.5 3.7 16 3z"/></svg><svg xmlns="http://www.w3.org/2000/svg" width="26" height="26" x="755" y="733" viewBox="-5 -5 26 26"><path fill="#fff" d="M16 3c-.6.3-1.3.4-1.9.5.7-.4 1.2-1 1.4-1.8-.7.4-1.3.7-2.1.8-.7-.7-1.4-1-2.4-1-.9 0-1.7.3-2.3 1-.6.6-1 1.4-1 2.3 0 .2 0 .5.1.8-1.3-.1-2.6-.4-3.8-1C2.8 4 1.8 3.2 1 2.2c-.2.4-.3 1-.3 1.6 0 .6.1 1.1.4 1.6s.6.9 1.1 1.2c-.5 0-1-.2-1.5-.4 0 .8.2 1.5.7 2.1.5.6 1.1 1 1.9 1.1H1.8c.2.6.6 1.2 1.2 1.6.6.4 1.2.6 1.9.7-1.2.9-2.5 1.4-4.1 1.4H0c1.5 1 3.2 1.5 5 1.5 1.2 0 2.3-.2 3.3-.6 1-.4 1.9-.9 2.6-1.5.7-.6 1.3-1.3 1.9-2.1.5-.8.9-1.6 1.2-2.5.3-.9.4-1.8.4-2.6v-.4C15 4.3 15.5 3.7 16 3z"/></svg></svg>