<?xml version="1.0" encoding="utf-8"?><svg width="981" height="1069" viewBox="0 0 981 1069" xmlns="http://www.w3.org/2000/svg" xmlns:xlink="http://www.w3.org/1999/xlink"><svg width="34" height="50" viewBox="-5 -5 34 50" id="arrow--large-left-blue" xmlns="http://www.w3.org/2000/svg"><path d="M7.4 20L23.6 4.2c.3-.2.4-.5.4-.9s-.1-.7-.4-.9l-2.1-2c-.2-.3-.6-.4-.9-.4-.4 0-.7.1-.9.4L.4 19.1c-.3.2-.4.6-.4.9 0 .3.1.7.4.9l19.2 18.7c.3.3.6.4.9.4.4 0 .7-.1.9-.4l2.1-2c.3-.3.4-.6.4-.9 0-.3-.1-.7-.4-.9L7.4 20z" fill="#005ea5"/></svg><svg width="34" height="50" viewBox="-5 -5 34 50" id="arrow--large-left-dark-blue" x="34" y="50" xmlns="http://www.w3.org/2000/svg"><path d="M7.4 20L23.6 4.2c.3-.2.4-.5.4-.9s-.1-.7-.4-.9l-2.1-2c-.2-.3-.6-.4-.9-.4-.4 0-.7.1-.9.4L.4 19.1c-.3.2-.4.6-.4.9s.1.7.4.9l19.2 18.7c.3.3.6.4.9.4.4 0 .7-.1.9-.4l2.1-2c.3-.3.4-.6.4-.9 0-.3-.1-.7-.4-.9L7.4 20z" fill="#003259"/></svg><svg width="34" height="50" viewBox="-1 -17 34 50" id="arrow--large-left-light-grey" x="68" y="100" xmlns="http://www.w3.org/2000/svg"><path d="M11.4 8L27.6-7.8c.3-.2.4-.5.4-.9s-.1-.7-.4-.9l-2.1-2c-.2-.3-.6-.4-.9-.4-.4 0-.7.1-.9.4L4.4 7.1c-.3.2-.4.6-.4.9s.1.7.4.9l19.2 18.7c.3.3.6.4.9.4.4 0 .7-.1.9-.4l2.1-2c.3-.3.4-.6.4-.9 0-.3-.1-.7-.4-.9L11.4 8z" fill="#ccc"/></svg><svg width="34" height="50" viewBox="-5 -5 34 50" id="arrow--large-right-blue" x="102" y="150" xmlns="http://www.w3.org/2000/svg"><path d="M16.6 20L.4 35.8c-.3.2-.4.5-.4.9 0 .3.1.7.4.9l2.1 2c.2.3.6.4.9.4.4 0 .7-.1.9-.4l19.2-18.7c.3-.3.4-.6.4-.9 0-.3-.1-.7-.4-.9L4.4.4c-.3-.3-.6-.4-1-.4-.3 0-.7.1-.9.4l-2.1 2c-.3.3-.4.6-.4.9 0 .4.1.7.4.9L16.6 20z" fill="#005ea5"/></svg><svg width="34" height="50" viewBox="-5 -5 34 50" id="arrow--large-right-dark-blue" x="136" y="200" xmlns="http://www.w3.org/2000/svg"><path d="M16.6 20L.4 35.8c-.3.2-.4.5-.4.9s.1.7.4.9l2.1 2c.2.3.6.4.9.4.4 0 .7-.1.9-.4l19.3-18.7c.3-.2.4-.6.4-.9s-.1-.7-.4-.9L4.4.4C4.1.1 3.8 0 3.5 0c-.4 0-.7.1-.9.4l-2.1 2c-.3.3-.4.6-.4.9 0 .3.1.7.4.9L16.6 20z" fill="#003259"/></svg><svg width="34" height="50" viewBox="-1 -17 34 50" id="arrow--large-right-light-grey" x="170" y="250" xmlns="http://www.w3.org/2000/svg"><path d="M20.6 8L4.4 23.8c-.3.2-.4.5-.4.9s.1.7.4.9l2.1 2c.2.3.6.4.9.4.4 0 .7-.1.9-.4L27.6 8.9c.3-.2.4-.6.4-.9s-.1-.7-.4-.9L8.4-11.6c-.3-.3-.6-.4-.9-.4-.4 0-.7.1-.9.4l-2.1 2c-.3.3-.4.6-.4.9 0 .3.1.7.4.9L20.6 8z" fill="#ccc"/></svg><svg width="19" height="26" viewBox="-5 -5 19 26" id="arrow--medium-left-thin-blue" x="204" y="300" xmlns="http://www.w3.org/2000/svg"><path fill="#005EA5" d="M2.774 8.027L8.85 1.686c.111-.08.15-.201.15-.362 0-.16-.039-.281-.149-.361L8.062.161C7.987.04 7.837 0 7.724 0c-.15 0-.261.04-.336.161L.149 7.667c-.112.08-.149.24-.149.36s.038.281.15.362l7.199 7.505c.114.12.225.16.339.16.149 0 .262-.04.337-.16l.787-.803c.113-.12.149-.24.149-.36s-.036-.281-.149-.362L2.774 8.027z"/></svg><svg width="19" height="26" viewBox="-5 -5 19 26" id="arrow--medium-right-thin-blue" x="223" y="326" xmlns="http://www.w3.org/2000/svg"><path fill="#005EA5" d="M6.225 8.027L.149 14.368c-.11.08-.149.201-.149.362 0 .16.039.28.149.36l.788.803c.075.121.226.161.339.161.15 0 .261-.04.336-.161L8.85 8.388c.112-.08.15-.241.15-.361s-.038-.281-.15-.361L1.651.16A.448.448 0 0 0 1.312 0C1.163 0 1.05.04.975.16L.188.963c-.113.12-.149.24-.149.36s.036.281.149.362l6.037 6.342z"/></svg><svg width="21" height="16" viewBox="-5 -5 21 16" id="arrow--micro-down-blue" x="242" y="352" xmlns="http://www.w3.org/2000/svg"><path fill="#005EA5" d="M5.5 4.15L1.156.1C1.102.026 1.018 0 .907 0 .798 0 .716.026.661.1L.11.625C.027.676 0 .775 0 .852c0 .101.027.174.11.224L5.253 5.9c.055.076.164.1.247.1.082 0 .192-.024.247-.1l5.143-4.799c.081-.076.11-.149.11-.225 0-.101-.029-.176-.109-.226l-.549-.524c-.084-.076-.166-.1-.248-.1s-.194.024-.25.1L5.5 4.15z"/></svg><svg width="21" height="16" viewBox="-5 -5 21 16" id="arrow--micro-down-dark-blue" x="263" y="368" xmlns="http://www.w3.org/2000/svg"><path fill="#003259" d="M5.5 4.15L1.156.1C1.101.026 1.017 0 .907 0S.715.026.661.1L.11.625C.027.675 0 .775 0 .851c0 .101.027.174.11.224L5.253 5.9c.055.076.164.1.247.1.082 0 .192-.024.247-.1l5.143-4.799c.081-.076.11-.149.11-.226 0-.1-.029-.175-.109-.225l-.549-.525c-.084-.076-.166-.099-.248-.099S9.9.05 9.844.125L5.5 4.15z"/></svg><svg width="21" height="16" viewBox="-5 -5 21 16" id="arrow--micro-down-white" x="284" y="384" xmlns="http://www.w3.org/2000/svg"><path fill="#FFF" d="M5.5 4.15L1.156.1C1.102.026 1.018 0 .907 0 .798 0 .716.026.661.1L.11.625C.027.676 0 .775 0 .852c0 .101.027.174.11.224L5.253 5.9c.055.076.164.1.247.1.082 0 .192-.024.247-.1l5.143-4.799c.081-.076.11-.149.11-.225 0-.101-.029-.176-.109-.226l-.549-.524c-.084-.076-.166-.1-.248-.1s-.194.024-.25.1L5.5 4.15z"/></svg><svg width="21" height="16" viewBox="-5 -5 21 16" id="arrow--micro-up-blue" x="305" y="400" xmlns="http://www.w3.org/2000/svg"><path fill="#005EA5" d="M5.5 1.85L9.844 5.9c.054.074.138.1.249.1.109 0 .191-.026.246-.1l.551-.525c.083-.051.11-.15.11-.227 0-.101-.027-.174-.11-.224L5.747.1C5.692.024 5.583 0 5.5 0c-.083 0-.193.024-.248.1L.109 4.898c-.08.077-.109.15-.109.226 0 .101.029.176.109.226l.549.524c.084.076.166.1.248.1s.193-.023.25-.1L5.5 1.85z"/></svg><svg width="21" height="16" viewBox="-5 -5 21 16" id="arrow--micro-up-dark-blue" x="326" y="416" xmlns="http://www.w3.org/2000/svg"><path fill="#003259" d="M5.5 1.85L9.844 5.9c.054.074.138.1.249.1.109 0 .191-.026.246-.1l.551-.525c.083-.051.11-.15.11-.227 0-.101-.027-.174-.11-.224L5.747.1C5.692.024 5.583 0 5.5 0c-.083 0-.193.024-.248.1L.109 4.898c-.08.077-.109.15-.109.226 0 .101.029.176.109.226l.549.524c.084.076.166.1.248.1s.193-.023.25-.1L5.5 1.85z"/></svg><svg width="21" height="16" viewBox="-5 -5 21 16" id="arrow--micro-up-white" x="347" y="432" xmlns="http://www.w3.org/2000/svg"><path fill="#FFF" d="M5.5 1.85L9.844 5.9c.054.074.138.1.249.1.109 0 .191-.026.246-.1l.551-.525c.083-.051.11-.15.11-.227 0-.101-.027-.174-.11-.224L5.747.1C5.692.024 5.583 0 5.5 0c-.083 0-.193.024-.248.1L.109 4.898c-.08.077-.109.15-.109.226 0 .101.029.176.109.226l.549.524c.084.076.166.1.248.1s.193-.023.25-.1L5.5 1.85z"/></svg><svg width="21" height="16" viewBox="-5 -5 21 16" id="arrow--mini-down-grey" x="368" y="448" xmlns="http://www.w3.org/2000/svg"><path fill="#999" d="M5.5 4.15L1.156.1C1.102.026 1.018 0 .906 0 .797 0 .715.026.66.1L.109.625C.027.676 0 .775 0 .852c0 .101.027.174.109.224L5.253 5.9c.055.076.165.1.247.1s.193-.024.248-.1l5.143-4.799c.08-.076.109-.149.109-.225 0-.101-.029-.176-.109-.226l-.549-.524c-.084-.076-.166-.1-.248-.1s-.194.024-.25.1L5.5 4.15z"/></svg><svg width="16" height="21" viewBox="-5 -5 16 21" id="arrow--mini-left-blue" x="389" y="464" xmlns="http://www.w3.org/2000/svg"><path d="M1.8 5.5l4.1-4.3C6 1.1 6 1 6 .9c0-.1 0-.2-.1-.2L5.4.1C5.3 0 5.2 0 5.1 0 5 0 5 0 4.9.1L.1 5.3c-.1 0-.1.1-.1.2s0 .2.1.2l4.8 5.1c.1.2.1.2.2.2s.2 0 .2-.1l.5-.5c.1-.1.2-.2.2-.3s0-.2-.1-.2c0-.1-4.1-4.4-4.1-4.4z" fill="#005ea5"/></svg><svg width="16" height="21" viewBox="-5 -5 16 21" id="arrow--mini-left-dark-blue" x="405" y="485" xmlns="http://www.w3.org/2000/svg"><path d="M1.8 5.5l4.1-4.3C6 1.1 6 1 6 .9c0-.1 0-.2-.1-.2L5.4.1C5.3 0 5.2 0 5.1 0 5 0 5 0 4.9.1L.1 5.3c-.1 0-.1.1-.1.2s0 .2.1.2l4.8 5.1c.1.2.1.2.2.2s.2 0 .2-.1l.5-.5c.1-.1.2-.2.2-.3s0-.2-.1-.2c0-.1-4.1-4.4-4.1-4.4z" fill="#003259"/></svg><svg width="16" height="21" viewBox="-5 -5 16 21" id="arrow--mini-right-grey" x="421" y="506" xmlns="http://www.w3.org/2000/svg"><path fill="#999" d="M4.15 5.5L.1 9.843c-.074.055-.1.139-.1.25 0 .109.026.191.1.246l.525.551c.051.082.15.11.227.11.101 0 .174-.027.224-.109L5.9 5.747c.076-.055.1-.165.1-.247s-.024-.193-.1-.248L1.102.109C1.025.029.952 0 .876 0 .775 0 .7.029.65.109L.126.658c-.076.084-.1.166-.1.248s.023.193.1.25L4.15 5.5z"/></svg><svg width="16" height="21" viewBox="-5 -5 16 21" id="arrow--mini-right-white" x="437" y="527" xmlns="http://www.w3.org/2000/svg"><path fill="#fff" d="M4.15 5.5L.1 9.844c-.074.054-.1.138-.1.25 0 .109.026.191.1.246l.525.551c.051.082.15.109.227.109.101 0 .174-.027.224-.109L5.9 5.747c.076-.055.1-.165.1-.247s-.024-.193-.1-.248L1.102.109C1.025.029.952 0 .876 0 .775 0 .7.029.65.109L.126.658c-.076.084-.1.166-.1.248s.023.193.1.25L4.15 5.5z"/></svg><svg width="22" height="22" viewBox="-6.1 -2.1 22 22" id="icon--close-blue" x="453" y="548" xmlns="http://www.w3.org/2000/svg"><path d="M7.7 8.9l3-3c.2-.2.3-.4.3-.7s-.1-.5-.3-.7L9.2 3.2c-.2-.2-.4-.3-.7-.3-.3 0-.5.1-.6.3l-3 3-3-3c-.1-.2-.3-.3-.6-.3s-.5.1-.7.3L-.8 4.6c-.2.2-.3.4-.3.7s.1.5.3.6l3 3-3 3c-.2.1-.3.3-.3.6s.1.5.3.7l1.4 1.4c.2.2.4.3.7.3s.5-.1.7-.3l3-3 3 3c.2.2.4.3.7.3.3 0 .5-.1.7-.3l1.4-1.4c.2-.2.3-.4.3-.7s-.1-.5-.3-.7c-.2.1-3.1-2.9-3.1-2.9z" fill="#005ea5"/></svg><svg width="22" height="22" viewBox="-5 -5 22 22" id="icon--close-small-blue" x="475" y="570" xmlns="http://www.w3.org/2000/svg"><path d="M12 1.2L10.8 0 6 4.8 1.2 0 0 1.2 4.8 6 0 10.8 1.2 12 6 7.2l4.8 4.8 1.2-1.2L7.2 6 12 1.2zm0 0" fill="#005ea5"/></svg><svg width="22" height="22" viewBox="-5 -5 22 22" id="icon--close-small-white" x="497" y="592" xmlns="http://www.w3.org/2000/svg"><path d="M12 1.2L10.8 0 6 4.8 1.2 0 0 1.2 4.8 6 0 10.8 1.2 12 6 7.2l4.8 4.8 1.2-1.2L7.2 6 12 1.2zm0 0" fill="#FFF"/></svg><svg width="22" height="22" viewBox="494.5 -9.1 22 22" id="icon--close-white" x="519" y="614" xmlns="http://www.w3.org/2000/svg"><path d="M508.3 1.9l3-3c.2-.2.3-.4.3-.7 0-.3-.1-.5-.3-.7l-1.4-1.4c-.2-.2-.4-.3-.7-.3s-.5.1-.7.3l-3 3-3-3c-.2-.2-.4-.3-.7-.3s-.5.1-.7.3l-1.4 1.4c-.2.2-.3.4-.3.7 0 .3.1.5.3.7l3 3-3 3c-.2.2-.3.4-.3.7s.1.5.3.7l1.4 1.4c.2.2.4.3.7.3s.5-.1.7-.3l3-3 3 3c.2.2.4.3.7.3s.5-.1.7-.3l1.4-1.4c.2-.2.3-.4.3-.7s-.1-.5-.3-.7l-3-3z" fill="#fff"/></svg><svg width="26" height="26" viewBox="-5 -5 26 26" id="icon--envelope-dark-grey" x="541" y="636" xmlns="http://www.w3.org/2000/svg"><path d="M1.5 5.6l1.8 1.3s1.8 1.2 2.3 1.6c.1 0 .2.1.4.3.3.1.4.2.6.3l.4.3s.4.2.5.2c.2.1.4.1.5.1.1 0 .3 0 .4-.1s.4-.1.6-.2.3-.2.5-.3c.1-.1.2-.2.4-.3.2-.1.3-.2.4-.3.5-.4 1.9-1.3 4.2-2.9.4-.3.8-.7 1.1-1.1s.4-.9.4-1.4c0-.4-.1-.7-.4-1s-.6-.4-1-.4H1.4c-.4 0-.8.2-1 .5S0 2.9 0 3.3s.2.8.5 1.2c.3.5.7.8 1 1.1zm13.6.9c-2 1.3-3.4 2.3-4.4 3.1-.3.2-.6.4-.8.6-.2.1-.5.3-.8.4-.4.1-.7.2-1 .2-.3 0-.6-.1-1-.2s-.6-.3-.8-.4c-.3-.1-.6-.3-1-.6C4.5 9 3.1 8 .9 6.5c-.3-.2-.6-.4-.9-.7v7.1c0 .4.1.7.4 1s.6.4 1 .4h13.1c.4 0 .7-.1 1-.4.3-.3.4-.6.4-1V5.8c-.2.3-.5.5-.8.7z" fill="#333"/></svg><svg width="26" height="26" viewBox="-5 -5 26 26" id="icon--envelope-white" x="567" y="662" xmlns="http://www.w3.org/2000/svg"><path d="M1.5 5.6l1.8 1.3c1 .7 1.8 1.2 2.3 1.6.1 0 .2.1.4.3.3.1.4.2.6.3l.4.3s.4.2.5.2c.2.1.4.1.5.1.1 0 .3 0 .4-.1s.4-.1.6-.2l.5-.3c.1-.1.2-.2.4-.3.2-.1.3-.2.4-.3.5-.4 1.9-1.3 4.2-2.9.4-.3.8-.7 1.1-1.1.3-.4.4-.9.4-1.4 0-.4-.1-.7-.4-1s-.6-.4-1-.4H1.4c-.4 0-.8.2-1 .5S0 2.9 0 3.3c0 .4.2.8.5 1.2.3.5.7.8 1 1.1zm13.6.9c-2 1.3-3.4 2.3-4.4 3.1-.3.2-.6.4-.8.6-.2.1-.5.3-.8.4-.4.1-.7.2-1 .2-.3 0-.6-.1-1-.2s-.6-.3-.8-.4c-.3-.1-.6-.3-1-.6C4.5 9 3.1 8 .9 6.5c-.3-.2-.6-.4-.9-.7v7.1c0 .4.1.7.4 1 .3.3.6.4 1 .4h13.1c.4 0 .7-.1 1-.4.3-.3.4-.6.4-1V5.8c-.2.3-.5.5-.8.7z" fill="#fff"/></svg><svg width="23" height="21" viewBox="-5 -5 23 21" id="icon--external-blue" x="593" y="688" xmlns="http://www.w3.org/2000/svg"><path d="M10 6.4h-.5c-.1 0-.1 0-.2.1 0 0-.1.1-.1.2V9c0 .3-.1.6-.3.8-.2.2-.5.3-.8.3h-6c-.3 0-.6-.1-.8-.3s-.4-.5-.4-.9V3c0-.3.1-.6.3-.8.2-.2.5-.3.8-.3h5.1c.1 0 .1 0 .2-.1 0 0 .1-.1.1-.2v-.5c0-.1 0-.1-.1-.2 0 0-.1-.1-.2-.1h-5c-.6.1-1.1.3-1.5.7-.4.4-.6.9-.6 1.5v6c0 .6.2 1.1.6 1.5.4.3.9.5 1.5.5h6c.6 0 1.1-.2 1.5-.6.4-.4.6-.9.6-1.5V6.6c0-.1 0-.1-.1-.2H10zM12.9.1c-.1-.1-.2-.1-.4-.1H8.8c-.1 0-.2 0-.3.1s-.1.2-.1.4 0 .2.1.3L9.8 2 5 6.7V7l.8.8s.1.1.2.1.1 0 .2-.1l4.7-4.7 1.3 1.3c.1.1.2.1.3.1.1 0 .2 0 .3-.1s.2-.2.2-.3V.5c0-.2 0-.3-.1-.4z" fill="#005ea5"/></svg><svg width="23" height="21" viewBox="-6 -2 23 21" id="icon--external-dark-grey" x="616" y="709" xmlns="http://www.w3.org/2000/svg"><path d="M9 9.4h-.5c-.1 0-.1 0-.2.1 0 0-.1.1-.1.2V12c0 .3-.1.6-.3.8s-.5.3-.8.3h-6c-.3 0-.6-.1-.8-.3s-.4-.5-.4-.9V6c0-.3.1-.6.3-.8.2-.2.5-.3.8-.3h5.1c.1 0 .1 0 .2-.1 0 0 .1-.1.1-.2v-.5c0-.1 0-.1-.1-.2 0 0-.1-.1-.2-.1h-5c-.6.1-1.1.3-1.5.7S-1 5.4-1 6v6c0 .6.2 1.1.6 1.5.4.3.9.5 1.5.5h6c.6 0 1.1-.2 1.5-.6.4-.4.6-.9.6-1.5V9.6c0-.1 0-.1-.1-.2H9zm2.9-6.3c-.1-.1-.2-.1-.4-.1H7.8c-.1 0-.2 0-.3.1-.1.1-.1.2-.1.4s0 .2.1.3L8.8 5 4 9.7v.3l.8.8s.1.1.2.1.1 0 .2-.1l4.7-4.7 1.3 1.3c.1.1.2.1.3.1s.2 0 .3-.1.2-.2.2-.3V3.5c0-.2 0-.3-.1-.4z" fill="#333"/></svg><svg width="26" height="26" viewBox="-5 -5 26 26" id="icon--facebook-dark-grey" x="639" y="730" xmlns="http://www.w3.org/2000/svg"><path d="M9.2 5.2V3.4s.1-.2.1-.3c.1-.1.2-.2.3-.2l.6-.1h1.4V0H9.5C8.2 0 7.3.3 6.8.9s-.9 1.5-.9 2.7v1.7H4.3V8h1.6v8h3.3V8h2.2l.3-2.8H9.2z" fill="#333"/></svg><svg width="26" height="26" viewBox="-5 -5 26 26" id="icon--facebook-white" x="665" y="756" xmlns="http://www.w3.org/2000/svg"><path d="M9.2 5.2V3.4s.1-.2.1-.3c.1-.1.2-.2.3-.2l.6-.1h1.4V0H9.5C8.2 0 7.3.3 6.8.9s-.9 1.5-.9 2.7v1.7H4.3V8h1.6v8h3.3V8h2.2l.3-2.8H9.2z" fill="#fff"/></svg><svg width="24" height="24" viewBox="-5 -5 24 24" id="icon--filter-grey" x="691" y="782" xmlns="http://www.w3.org/2000/svg"><path d="M8.7 6.6c-.2.2-.2.4-.2.6v6.4c0 .4-.5.6-.7.3l-1.8-2c-.2-.3-.4-.4-.4-.7V7.3c0-.2-.1-.4-.2-.6L.2 1.1C-.2.7.1 0 .7 0h12.7c.6 0 .9.7.5 1.1L8.7 6.6zm0 0" fill="#333"/></svg><svg width="22" height="22" viewBox="-5 -5 22 22" id="icon--info-blue" x="715" y="806" xmlns="http://www.w3.org/2000/svg"><path d="M5 1c0-.3.1-.6.3-.8.1-.1.4-.2.7-.2.3 0 .6.1.8.3.1.1.2.4.2.7 0 .3-.1.6-.3.7-.1.2-.4.3-.7.3-.3 0-.6-.1-.8-.2-.1-.2-.2-.5-.2-.8zm1.9 11H5.1V3.3h1.8V12z" fill="#005ea5"/></svg><svg width="22" height="22" viewBox="-5 -5 22 22" id="icon--info-white" x="737" y="828" xmlns="http://www.w3.org/2000/svg"><path d="M5 1c0-.3.1-.6.3-.8.1-.1.4-.2.7-.2.3 0 .6.1.8.3.1.1.2.4.2.7 0 .3-.1.6-.3.7-.1.2-.4.3-.7.3-.3 0-.6-.1-.8-.2-.1-.2-.2-.5-.2-.8zm1.9 11H5.1V3.3h1.8V12z" fill="#fff"/></svg><svg width="26" height="26" viewBox="-5 -5 26 26" id="icon--linkedin-dark-grey" x="759" y="850" xmlns="http://www.w3.org/2000/svg"><path d="M.2 5.3h3.4v10.3H.2zm14.7 1c-.7-.8-1.7-1.2-2.9-1.2-.4 0-.8.1-1.2.2s-.7.3-.9.5c-.2.1-.4.3-.5.4-.2.2-.3.4-.4.6V5.3H5.5v10.3H9V9.9c0-.4 0-.6.1-.9.1-.4.4-.6.7-.9.3-.2.7-.4 1.1-.4.6 0 1 .2 1.3.6.3.4.4 1 .4 1.7v5.5H16V9.7c0-1.5-.4-2.6-1.1-3.4zM1.9.4C1.3.4.9.6.5.9S0 1.6 0 2.1s.2.9.5 1.3.8.5 1.4.5c.6 0 1.1-.2 1.4-.5s.5-.8.5-1.3-.2-.9-.5-1.3C3 .5 2.5.4 1.9.4z" fill="#333"/></svg><svg width="26" height="26" viewBox="-5 -5 26 26" id="icon--linkedin-white" x="785" y="876" xmlns="http://www.w3.org/2000/svg"><path d="M.2 5.3h3.4v10.3H.2zm14.7 1c-.7-.8-1.7-1.2-2.9-1.2-.4 0-.8.1-1.2.2s-.7.3-.9.5c-.2.1-.4.3-.5.4-.2.2-.3.4-.4.6V5.3H5.5v10.3H9V9.9c0-.4 0-.6.1-.9.1-.4.4-.6.7-.9.3-.2.7-.4 1.1-.4.6 0 1 .2 1.3.6.3.4.4 1 .4 1.7v5.5H16V9.7c0-1.5-.4-2.6-1.1-3.4zM1.9.4C1.3.4.9.6.5.9S0 1.6 0 2.1s.2.9.5 1.3.8.5 1.4.5c.6 0 1.1-.2 1.4-.5s.5-.8.5-1.3-.2-.9-.5-1.3C3 .5 2.5.4 1.9.4z" fill="#fff"/></svg><svg width="24" height="22" viewBox="-5 -5 24 22" id="icon--menu-black" x="811" y="902" xmlns="http://www.w3.org/2000/svg"><path d="M13.4 9.6H.6c-.2 0-.3.1-.4.2-.1.1-.2.2-.2.4v1.2c0 .2.1.3.2.4.1.1.2.2.4.2h12.8c.2 0 .3-.1.4-.2.1-.1.2-.3.2-.4v-1.2c0-.2-.1-.3-.2-.4-.1-.1-.2-.2-.4-.2zm.4-9.4c-.1-.1-.2-.2-.4-.2H.6C.4 0 .3.1.2.2.1.3 0 .4 0 .6v1.2c0 .2.1.3.2.4.1.1.3.2.4.2h12.8c.2 0 .3-.1.4-.2.1-.1.2-.2.2-.4V.6c0-.2-.1-.3-.2-.4zm-.4 4.6H.6c-.2 0-.3.1-.4.2-.1.1-.2.2-.2.4v1.2c0 .2.1.3.2.4.1.1.3.2.4.2h12.8c.2 0 .3-.1.4-.2.1-.1.2-.2.2-.4V5.4c0-.2-.1-.3-.2-.4-.1-.1-.2-.2-.4-.2z"/></svg><svg width="24" height="22" viewBox="-5 -5 24 22" id="icon--menu-white" x="835" y="924" xmlns="http://www.w3.org/2000/svg"><path d="M13.4 9.6H.6c-.2 0-.3.1-.4.2-.1.1-.2.2-.2.4v1.2c0 .2.1.3.2.4.1.1.2.2.4.2h12.8c.2 0 .3-.1.4-.2.1-.1.2-.3.2-.4v-1.2c0-.2-.1-.3-.2-.4-.1-.1-.2-.2-.4-.2zm.4-9.4c-.1-.1-.2-.2-.4-.2H.6C.4 0 .3.1.2.2S0 .4 0 .6v1.2c0 .2.1.3.2.4s.3.2.4.2h12.8c.2 0 .3-.1.4-.2.1-.1.2-.2.2-.4V.6c0-.2-.1-.3-.2-.4zm-.4 4.6H.6c-.2 0-.3.1-.4.2s-.2.2-.2.4v1.2c0 .2.1.3.2.4s.3.2.4.2h12.8c.2 0 .3-.1.4-.2.1-.1.2-.2.2-.4V5.4c0-.2-.1-.3-.2-.4-.1-.1-.2-.2-.4-.2z" fill="#fff"/></svg><svg width="22" height="23" viewBox="-7 0.5 22 23" id="icon--search-black" x="859" y="946" xmlns="http://www.w3.org/2000/svg"><path d="M9.7 16.2l-2.4-2.4c.6-.9.9-1.8.9-2.8 0-.7-.1-1.3-.4-2-.3-.5-.7-1.1-1.1-1.5-.5-.5-1-.8-1.7-1.1-.6-.3-1.2-.4-1.9-.4s-1.3.1-2 .4C.5 6.7-.1 7-.5 7.5c-.5.4-.8 1-1.1 1.6-.3.6-.4 1.3-.4 2s.1 1.3.4 2c.3.6.6 1.1 1.1 1.6s1 .8 1.6 1.1c.6.3 1.3.4 2 .4 1.1 0 2-.3 2.9-.9l2.5 2.5c.2.1.4.2.6.2.3 0 .5-.1.6-.3.2-.2.3-.4.3-.6 0-.5-.1-.7-.3-.9zm-4.3-3c-.7.6-1.4.9-2.3.9s-1.7-.3-2.3-.9c-.6-.7-1-1.4-1-2.3s.3-1.7.9-2.3c.6-.4 1.4-.7 2.3-.7s1.7.3 2.3.9c.7.6 1 1.4 1 2.3 0 .9-.3 1.4-.9 2.1z"/></svg><svg width="26" height="26" viewBox="-5 -5 26 26" id="icon--search-dark-grey" x="881" y="969" xmlns="http://www.w3.org/2000/svg"><path d="M15.6 13.9l-3.3-3.3c.8-1.1 1.2-2.4 1.2-3.8 0-.9-.2-1.8-.5-2.6-.4-.8-.8-1.6-1.4-2.2S10.3.9 9.4.6C8.6.2 7.7 0 6.8 0 5.9 0 5 .2 4.1.5 3.3.9 2.6 1.4 2 2 1.4 2.6.9 3.3.5 4.1.2 5 0 5.9 0 6.8c0 .9.2 1.8.5 2.6.4.8.9 1.6 1.5 2.2.6.6 1.3 1.1 2.2 1.4.8.4 1.7.5 2.6.5 1.4 0 2.7-.4 3.8-1.2l3.3 3.3c.2.2.5.4.9.4.3 0 .6-.1.9-.4.2-.2.4-.5.4-.9-.1-.3-.2-.6-.5-.8zM9.8 9.8c-.8.8-1.9 1.3-3 1.3-1.2 0-2.2-.4-3-1.3-.9-.8-1.3-1.8-1.3-3s.4-2.2 1.3-3c.8-.8 1.9-1.3 3-1.3 1.2 0 2.2.4 3 1.3.8.8 1.3 1.9 1.3 3 0 1.2-.4 2.2-1.3 3z" fill="#424242"/></svg><svg width="22" height="22" viewBox="-5 -5 22 22" id="icon--search-white" x="907" y="995" xmlns="http://www.w3.org/2000/svg"><path d="M11.7 10.2L9.3 7.8c.6-.9.9-1.8.9-2.8 0-.7-.1-1.3-.4-2-.3-.5-.7-1.1-1.1-1.5C8.2 1 7.7.7 7 .4 6.4.1 5.8 0 5.1 0s-1.3.1-2 .4c-.6.3-1.2.6-1.6 1.1-.5.4-.8 1-1.1 1.6S0 4.4 0 5.1s.1 1.3.4 2c.3.6.6 1.1 1.1 1.6s1 .8 1.6 1.1 1.3.4 2 .4c1.1 0 2-.3 2.9-.9l2.5 2.5c.2.1.4.2.6.2.3 0 .5-.1.6-.3.2-.2.3-.4.3-.6 0-.5-.1-.7-.3-.9zm-4.3-3c-.7.6-1.4.9-2.3.9s-1.7-.3-2.3-.9c-.6-.7-1-1.4-1-2.3s.3-1.7.9-2.3c.6-.4 1.4-.7 2.3-.7s1.7.3 2.3.9c.7.6 1 1.4 1 2.3 0 .9-.3 1.4-.9 2.1z" fill="#fff"/></svg><svg width="26" height="26" viewBox="-5 -5 26 26" id="icon--twitter-dark-grey" x="929" y="1017" xmlns="http://www.w3.org/2000/svg"><path d="M16 3c-.6.3-1.3.4-1.9.5.7-.4 1.2-1 1.4-1.8-.7.4-1.3.7-2.1.8-.7-.7-1.4-1-2.4-1-.9 0-1.7.3-2.3 1-.6.6-1 1.4-1 2.3 0 .2 0 .5.1.8-1.3-.1-2.6-.4-3.8-1S1.8 3.2 1 2.2c-.2.4-.3 1-.3 1.6s.1 1.1.4 1.6.6.9 1.1 1.2c-.5 0-1-.2-1.5-.4 0 .8.2 1.5.7 2.1s1.1 1 1.9 1.1H1.8c.2.6.6 1.2 1.2 1.6s1.2.6 1.9.7c-1.2.9-2.5 1.4-4.1 1.4H0c1.5 1 3.2 1.5 5 1.5 1.2 0 2.3-.2 3.3-.6 1-.4 1.9-.9 2.6-1.5s1.3-1.3 1.9-2.1c.5-.8.9-1.6 1.2-2.5s.4-1.8.4-2.6v-.4C15 4.3 15.5 3.7 16 3z" fill="#333"/></svg><svg width="26" height="26" viewBox="-5 -5 26 26" id="icon--twitter-white" x="955" y="1043" xmlns="http://www.w3.org/2000/svg"><path d="M16 3c-.6.3-1.3.4-1.9.5.7-.4 1.2-1 1.4-1.8-.7.4-1.3.7-2.1.8-.7-.7-1.4-1-2.4-1-.9 0-1.7.3-2.3 1-.6.6-1 1.4-1 2.3 0 .2 0 .5.1.8-1.3-.1-2.6-.4-3.8-1C2.8 4 1.8 3.2 1 2.2c-.2.4-.3 1-.3 1.6 0 .6.1 1.1.4 1.6s.6.9 1.1 1.2c-.5 0-1-.2-1.5-.4 0 .8.2 1.5.7 2.1.5.6 1.1 1 1.9 1.1H1.8c.2.6.6 1.2 1.2 1.6.6.4 1.2.6 1.9.7-1.2.9-2.5 1.4-4.1 1.4H0c1.5 1 3.2 1.5 5 1.5 1.2 0 2.3-.2 3.3-.6 1-.4 1.9-.9 2.6-1.5.7-.6 1.3-1.3 1.9-2.1.5-.8.9-1.6 1.2-2.5.3-.9.4-1.8.4-2.6v-.4C15 4.3 15.5 3.7 16 3z" fill="#fff"/></svg></svg>