<svg xmlns="http://www.w3.org/2000/svg" width="44" height="44" viewBox="0 0 44 44">
<style>
    path {
      fill: black;
    }
    @media (prefers-color-scheme: dark) {
      path {
        fill: white;
      }
    }
  </style>
  <path d="M25.92,13 L32.58,6.17 L32,5.57 C24.35,-1.69 12.7,-1.87 5.87,5.14 C2.52940616,8.61165648 0.811441081,13.3333364 1.14,18.14 C1.45620768,22.7929974 3.41210243,27.1831308 6.66,30.53 L0,37.37 L0.61,38 C4.15157583,41.4701517 8.87356925,43.4739628 13.83,43.61 L14.18,43.61 C18.8589499,43.659121 23.3541053,41.7909575 26.62,38.44 C29.9682235,34.9731058 31.687465,30.2479177 31.35,25.44 C31.0563411,20.7845038 29.1341155,16.380731 25.92,13 L25.92,13 Z M7.09,6.36 C10.0170447,3.36767607 14.0342072,1.69295604 18.22,1.72 C22.5765391,1.72520375 26.7754171,3.35057587 30,6.28 L7.79,29.22 C4.90856546,26.1590112 3.17698201,22.1940385 2.89,18 C2.61330654,13.705174 4.13473127,9.48865406 7.09,6.36 L7.09,6.36 Z M25.4,37.19 C22.3990541,40.2804746 18.2356431,41.9647142 13.93,41.83 C9.70525282,41.7543351 5.65407806,40.1359993 2.54,37.28 L7.88,31.76 L24.7,14.33 C27.632617,17.3529026 29.3729902,21.3344502 29.6,25.54 C29.922272,29.8441596 28.3946026,34.0816235 25.4,37.19 Z" transform="translate(7)"/>
</svg>
