<svg xmlns="http://www.w3.org/2000/svg" width="611" height="646"><path d="M407.2 137.6C361.8 92.1 318.4 48.8 305.5 0c-12.9 48.8-56.3 92.1-101.7 137.6-68.2 68.1-145.5 145.3-145.5 261.1C58.3 535.2 169 645.9 305.5 646s247.1-110.6 247.2-247.1v-.2c0-115.8-77.3-193-145.5-261.1M163.4 456.3c-15.2-.5-71.1-96.9 32.7-199.6l68.7 75c2.3 2.3 2.3 6 .1 8.3l-.5.5c-16.4 16.8-86.2 86.8-94.9 111.1-1.9 4.9-4.6 4.8-6.1 4.7m142.1 127.1c-47 0-85-38.1-85-85 .3-20.6 7.8-40.5 21.2-56.2 15.3-18.7 63.8-71.5 63.8-71.5s47.7 53.5 63.7 71.3c13.9 15.5 21.5 35.5 21.3 56.3 0 47-38 85.1-85 85.1m162.7-137.9c-1.8 4-6 10.7-11.6 10.9-10 .4-11.1-4.8-18.5-15.7-16.2-24-157.8-172-184.3-200.6-23.3-25.2-3.3-42.9 6-52.2 11.6-11.7 45.7-45.7 45.7-45.7s101.4 96.2 143.6 161.9 27.7 122.6 19.1 141.4"/></svg>
